<svg width="600" height="407" viewBox="0 0 600 407" fill="none" xmlns="http://www.w3.org/2000/svg">
<g clip-path="url(#clip0_495_3539)">
<rect width="600" height="407" fill="#131414"/>
<path d="M600 125.344L474 -0.656254H537L600 62.3438V125.344Z" fill="#E0A40A"/>
<path d="M518.031 21.7595C517.305 21.0335 516.776 20.235 516.445 19.3638C516.123 18.4823 515.967 17.58 515.978 16.657L517.549 16.5481C517.528 17.2948 517.658 18.026 517.938 18.7416C518.228 19.4675 518.643 20.1002 519.182 20.6395C519.857 21.3136 520.531 21.6869 521.205 21.7595C521.889 21.8217 522.48 21.6039 522.978 21.1061C523.331 20.7535 523.533 20.3957 523.585 20.0328C523.647 19.6801 523.621 19.3016 523.507 18.8971C523.403 18.503 523.263 18.0727 523.087 17.606L522.263 15.5059C522.076 15.0288 521.931 14.5206 521.827 13.9813C521.734 13.4524 521.749 12.9183 521.874 12.379C522.009 11.8294 522.325 11.3056 522.823 10.8078C523.341 10.2893 523.937 9.96261 524.612 9.82779C525.306 9.69297 526.006 9.75001 526.712 9.99891C527.438 10.2478 528.112 10.6834 528.734 11.3056C529.356 11.9279 529.813 12.6124 530.103 13.3591C530.393 14.1058 530.533 14.8369 530.523 15.5525L528.983 15.6925C528.941 15.091 528.812 14.5154 528.594 13.9658C528.387 13.4057 528.055 12.8976 527.598 12.4413C527.028 11.8709 526.432 11.5442 525.809 11.4612C525.198 11.3886 524.663 11.5805 524.207 12.0368C523.886 12.3583 523.704 12.7057 523.663 13.0791C523.621 13.4524 523.663 13.8361 523.787 14.2302C523.922 14.6347 524.062 15.034 524.207 15.4281L525.032 17.4971C525.26 18.0778 525.415 18.6379 525.498 19.1772C525.592 19.7268 525.555 20.2609 525.389 20.7795C525.234 21.3084 524.907 21.8217 524.409 22.3195C523.87 22.8588 523.237 23.2114 522.511 23.3774C521.806 23.5433 521.06 23.4914 520.271 23.2218C519.494 22.9625 518.747 22.4751 518.031 21.7595ZM525.594 29.3227C524.796 28.5241 524.459 27.6893 524.583 26.8181C524.728 25.947 525.283 25.0291 526.248 24.0646L531.039 19.2733L532.315 20.5489L527.695 25.1691C526.989 25.8744 526.585 26.4966 526.481 27.0359C526.398 27.5752 526.606 28.0937 527.103 28.5915C527.487 28.9753 527.928 29.219 528.426 29.3227C528.944 29.4264 529.603 29.442 530.401 29.3694L535.768 24.0024L537.044 25.278L529.484 32.8384L528.426 31.7806L529.499 30.4894L529.452 30.4427C528.695 30.5153 527.99 30.4739 527.337 30.3183C526.694 30.1731 526.113 29.8412 525.594 29.3227ZM535.192 38.9201C534.839 38.5675 534.559 38.1215 534.352 37.5823C534.155 37.0326 534.036 36.4363 533.994 35.7933L533.947 35.7466L533.061 36.4155L532.034 35.3888L543.11 24.3127L544.386 25.5883L541.368 28.6062L539.968 29.9441C540.611 29.9856 541.233 30.11 541.834 30.3174C542.457 30.5249 542.975 30.836 543.39 31.2508C544.043 31.9042 544.432 32.6146 544.557 33.382C544.692 34.1391 544.583 34.9221 544.23 35.7311C543.888 36.5296 543.328 37.3178 542.55 38.0956C541.689 38.9564 540.797 39.5372 539.874 39.8379C538.962 40.1491 538.096 40.2165 537.276 40.0402C536.457 39.8639 535.762 39.4905 535.192 38.9201ZM536.047 37.6289C536.462 38.0438 536.95 38.2927 537.51 38.3756C538.08 38.469 538.682 38.386 539.314 38.1267C539.957 37.8571 540.59 37.4111 541.212 36.7889C541.762 36.2392 542.177 35.6896 542.457 35.1399C542.747 34.5799 542.861 34.0406 542.799 33.5221C542.747 32.9931 542.483 32.4901 542.006 32.0131C541.694 31.702 541.28 31.4634 540.761 31.2975C540.263 31.1316 539.662 31.0382 538.957 31.0175L534.99 34.9843C535.031 35.6066 535.15 36.1407 535.347 36.5867C535.565 37.0326 535.799 37.38 536.047 37.6289ZM540.632 43.9873L548.193 36.427L549.251 37.4848L548.271 38.6826L548.317 38.7293C549.002 38.7086 549.66 38.7656 550.293 38.9004C550.936 39.0456 551.486 39.3464 551.942 39.8027C552.523 40.3835 552.844 40.9642 552.906 41.545C552.979 42.1361 552.87 42.7325 552.58 43.334C553.409 43.2925 554.156 43.3443 554.82 43.4895C555.494 43.6244 556.059 43.9199 556.515 44.3763C557.304 45.1644 557.63 45.9993 557.496 46.8808C557.371 47.752 556.827 48.6698 555.862 49.6343L551.071 54.4257L549.795 53.15L554.415 48.5298C555.131 47.8142 555.53 47.1868 555.613 46.6475C555.707 46.0978 555.515 45.5845 555.038 45.1074C554.737 44.8066 554.332 44.5992 553.824 44.4851C553.337 44.3711 552.72 44.3348 551.973 44.3763L546.497 49.8521L545.222 48.5765L549.842 43.9562C550.557 43.2406 550.957 42.6132 551.04 42.0739C551.133 41.5243 550.936 41.0057 550.449 40.5183C549.878 39.9479 548.857 39.7042 547.384 39.7871L541.908 45.263L540.632 43.9873ZM553.53 56.8851L561.091 49.3248L562.366 50.6004L554.806 58.1608L553.53 56.8851ZM563.284 48.4069C563.035 48.158 562.906 47.8728 562.895 47.5513C562.895 47.2402 563.02 46.9602 563.269 46.7113C563.517 46.4624 563.797 46.3379 564.109 46.3379C564.43 46.3483 564.715 46.4779 564.964 46.7268C565.213 46.9757 565.338 47.2558 565.338 47.5669C565.348 47.8884 565.229 48.1736 564.98 48.4225C564.731 48.6714 564.446 48.7906 564.124 48.7803C563.813 48.7803 563.533 48.6558 563.284 48.4069ZM559.599 63.2336C558.8 62.435 558.473 61.6417 558.619 60.8535C558.764 60.0653 559.21 59.2978 559.956 58.5511L564.094 54.4131L562.974 53.2931L563.939 52.3286L565.199 53.4331L567.781 51.1619L568.855 52.2352L566.428 54.662L568.481 56.7155L567.439 57.7578L565.386 55.7043L561.232 59.8579C560.776 60.3142 560.501 60.7549 560.408 61.1801C560.325 61.6157 560.501 62.0513 560.937 62.4869C561.071 62.6217 561.222 62.7513 561.388 62.8758C561.564 62.9899 561.761 63.0832 561.979 63.1558L561.357 64.3381C561.066 64.2344 560.765 64.0892 560.454 63.9025C560.143 63.7158 559.858 63.4929 559.599 63.2336ZM564.551 68.1861C563.753 67.3875 563.426 66.5942 563.571 65.806C563.716 65.0178 564.162 64.2503 564.909 63.5036L569.047 59.3656L567.927 58.2456L568.891 57.2811L570.151 58.3856L572.734 56.1144L573.807 57.1878L571.38 59.6145L573.434 61.668L572.392 62.7103L570.338 60.6568L566.185 64.8104C565.728 65.2667 565.453 65.7074 565.36 66.1327C565.277 66.5682 565.453 67.0038 565.889 67.4394C566.024 67.5742 566.174 67.7038 566.34 67.8283C566.516 67.9424 566.714 68.0357 566.931 68.1083L566.309 69.2906C566.019 69.1869 565.718 69.0417 565.407 68.855C565.096 68.6683 564.81 68.4454 564.551 68.1861ZM570.233 73.9609C569.559 73.2868 569.097 72.5142 568.848 71.643C568.62 70.7719 568.636 69.8851 568.895 68.9829C569.164 68.0702 569.719 67.1939 570.559 66.3538C571.379 65.5345 572.25 64.9953 573.173 64.736C574.096 64.4767 574.977 64.4456 575.817 64.6427C576.657 64.8397 577.368 65.2286 577.949 65.8094C578.592 66.4524 578.986 67.1472 579.131 67.8939C579.297 68.6406 579.229 69.3925 578.929 70.1496C578.628 70.9067 578.12 71.643 577.404 72.3586C577.269 72.4934 577.134 72.6179 577 72.732C576.875 72.8564 576.735 72.9653 576.58 73.0586L571.135 67.6139L572.146 66.6027L576.502 70.9585C577.228 70.2326 577.622 69.517 577.684 68.8118C577.767 68.1065 577.513 67.4583 576.922 66.8672C576.58 66.525 576.144 66.2864 575.615 66.1516C575.097 66.0064 574.516 66.0375 573.873 66.245C573.24 66.4627 572.571 66.9242 571.866 67.6295C571.223 68.2725 570.793 68.9206 570.575 69.574C570.367 70.2378 570.342 70.8756 570.497 71.4874C570.663 72.089 570.974 72.6179 571.431 73.0742C571.793 73.4372 572.182 73.7224 572.597 73.9298C573.022 74.1476 573.453 74.298 573.888 74.3809L573.515 75.6877C572.955 75.5839 572.395 75.3973 571.835 75.1276C571.285 74.8684 570.751 74.4794 570.233 73.9609ZM577.468 81.1961C576.514 80.2419 576.094 79.1374 576.208 77.8826C576.343 76.6277 577.037 75.3728 578.292 74.1179C579.112 73.2986 579.967 72.7438 580.859 72.4534C581.772 72.163 582.638 72.106 583.457 72.2823C584.276 72.4586 584.976 72.8371 585.557 73.4179C586.003 73.8638 586.304 74.3202 586.459 74.7868C586.636 75.2535 586.75 75.7928 586.802 76.4047L588.031 75.0513L590.94 72.1423L592.231 73.4334L581.155 84.5096L580.097 83.4517L580.875 82.4561L580.828 82.4095C580.247 82.4095 579.651 82.3213 579.039 82.145C578.438 81.9583 577.914 81.642 577.468 81.1961ZM578.821 80.4027C579.174 80.7553 579.594 80.999 580.081 81.1338C580.569 81.2687 581.139 81.3205 581.792 81.2894L585.744 77.3381C585.723 76.7366 585.619 76.2284 585.433 75.8136C585.256 75.3884 585.013 75.0202 584.702 74.7091C584.297 74.3046 583.804 74.0609 583.224 73.9779C582.664 73.895 582.067 73.9727 581.435 74.2113C580.812 74.4394 580.211 74.8439 579.63 75.4247C578.728 76.3269 578.199 77.2188 578.043 78.1004C577.898 78.9715 578.157 79.739 578.821 80.4027Z" fill="white"/>
<path opacity="0.7" d="M102.98 204V189.568H105.29L108.018 197.29C108.194 197.774 108.355 198.258 108.502 198.742C108.663 199.226 108.825 199.739 108.986 200.282H109.074C109.235 199.739 109.389 199.226 109.536 198.742C109.683 198.258 109.837 197.774 109.998 197.29L112.726 189.568H115.014V204H113.298V196.058C113.298 195.633 113.313 195.156 113.342 194.628C113.371 194.1 113.401 193.579 113.43 193.066C113.474 192.538 113.518 192.061 113.562 191.636H113.474L112.352 195.112L109.646 202.57H108.304L105.598 195.112L104.476 191.636H104.388C104.432 192.061 104.469 192.538 104.498 193.066C104.542 193.579 104.579 194.1 104.608 194.628C104.637 195.156 104.652 195.633 104.652 196.058V204H102.98ZM121.252 204.264C120.666 204.264 120.13 204.147 119.646 203.912C119.177 203.663 118.803 203.318 118.524 202.878C118.246 202.423 118.106 201.873 118.106 201.228C118.106 200.025 118.634 199.116 119.69 198.5C120.746 197.884 122.418 197.451 124.706 197.202C124.692 196.762 124.618 196.337 124.486 195.926C124.369 195.515 124.149 195.185 123.826 194.936C123.504 194.687 123.056 194.562 122.484 194.562C121.868 194.562 121.289 194.679 120.746 194.914C120.204 195.134 119.72 195.383 119.294 195.662L118.59 194.43C118.913 194.21 119.294 193.997 119.734 193.792C120.174 193.572 120.651 193.396 121.164 193.264C121.678 193.117 122.22 193.044 122.792 193.044C123.658 193.044 124.362 193.227 124.904 193.594C125.462 193.946 125.865 194.452 126.114 195.112C126.378 195.772 126.51 196.549 126.51 197.444V204H125.014L124.86 202.724H124.794C124.281 203.149 123.731 203.516 123.144 203.824C122.558 204.117 121.927 204.264 121.252 204.264ZM121.758 202.768C122.286 202.768 122.778 202.651 123.232 202.416C123.702 202.181 124.193 201.837 124.706 201.382V198.5C123.504 198.647 122.55 198.837 121.846 199.072C121.157 199.292 120.658 199.571 120.35 199.908C120.042 200.245 119.888 200.649 119.888 201.118C119.888 201.705 120.072 202.13 120.438 202.394C120.805 202.643 121.245 202.768 121.758 202.768ZM129.874 204V193.308H131.678V204H129.874ZM130.776 191.108C130.424 191.108 130.131 190.998 129.896 190.778C129.676 190.558 129.566 190.272 129.566 189.92C129.566 189.568 129.676 189.282 129.896 189.062C130.131 188.842 130.424 188.732 130.776 188.732C131.128 188.732 131.414 188.842 131.634 189.062C131.869 189.282 131.986 189.568 131.986 189.92C131.986 190.272 131.869 190.558 131.634 190.778C131.414 190.998 131.128 191.108 130.776 191.108ZM135.288 204V193.308H136.784L136.938 194.848H137.004C137.518 194.335 138.06 193.909 138.632 193.572C139.204 193.22 139.857 193.044 140.59 193.044C141.72 193.044 142.541 193.403 143.054 194.122C143.582 194.826 143.846 195.86 143.846 197.224V204H142.042V197.466C142.042 196.454 141.881 195.728 141.558 195.288C141.25 194.833 140.737 194.606 140.018 194.606C139.476 194.606 138.984 194.745 138.544 195.024C138.119 195.303 137.635 195.713 137.092 196.256V204H135.288ZM150.686 204.198C149.556 204.198 148.764 203.868 148.31 203.208C147.855 202.548 147.628 201.69 147.628 200.634V194.782H146.044V193.418L147.716 193.308L147.936 189.876H149.454V193.308H152.358V194.782H149.454V200.656C149.454 201.301 149.571 201.807 149.806 202.174C150.055 202.541 150.488 202.724 151.104 202.724C151.294 202.724 151.492 202.709 151.698 202.68C151.903 202.636 152.108 202.563 152.314 202.46L152.71 203.736C152.431 203.868 152.116 203.978 151.764 204.066C151.412 204.154 151.052 204.198 150.686 204.198ZM156.745 204.264C156.158 204.264 155.623 204.147 155.139 203.912C154.669 203.663 154.295 203.318 154.017 202.878C153.738 202.423 153.599 201.873 153.599 201.228C153.599 200.025 154.127 199.116 155.183 198.5C156.239 197.884 157.911 197.451 160.199 197.202C160.184 196.762 160.111 196.337 159.979 195.926C159.861 195.515 159.641 195.185 159.319 194.936C158.996 194.687 158.549 194.562 157.977 194.562C157.361 194.562 156.781 194.679 156.239 194.914C155.696 195.134 155.212 195.383 154.787 195.662L154.083 194.43C154.405 194.21 154.787 193.997 155.227 193.792C155.667 193.572 156.143 193.396 156.657 193.264C157.17 193.117 157.713 193.044 158.285 193.044C159.15 193.044 159.854 193.227 160.397 193.594C160.954 193.946 161.357 194.452 161.607 195.112C161.871 195.772 162.003 196.549 162.003 197.444V204H160.507L160.353 202.724H160.287C159.773 203.149 159.223 203.516 158.637 203.824C158.05 204.117 157.419 204.264 156.745 204.264ZM157.251 202.768C157.779 202.768 158.27 202.651 158.725 202.416C159.194 202.181 159.685 201.837 160.199 201.382V198.5C158.996 198.647 158.043 198.837 157.339 199.072C156.649 199.292 156.151 199.571 155.843 199.908C155.535 200.245 155.381 200.649 155.381 201.118C155.381 201.705 155.564 202.13 155.931 202.394C156.297 202.643 156.737 202.768 157.251 202.768ZM165.367 204V193.308H167.171V204H165.367ZM166.269 191.108C165.917 191.108 165.623 190.998 165.389 190.778C165.169 190.558 165.059 190.272 165.059 189.92C165.059 189.568 165.169 189.282 165.389 189.062C165.623 188.842 165.917 188.732 166.269 188.732C166.621 188.732 166.907 188.842 167.127 189.062C167.361 189.282 167.479 189.568 167.479 189.92C167.479 190.272 167.361 190.558 167.127 190.778C166.907 190.998 166.621 191.108 166.269 191.108ZM170.781 204V193.308H172.277L172.431 194.848H172.497C173.01 194.335 173.553 193.909 174.125 193.572C174.697 193.22 175.349 193.044 176.083 193.044C177.212 193.044 178.033 193.403 178.547 194.122C179.075 194.826 179.339 195.86 179.339 197.224V204H177.535V197.466C177.535 196.454 177.373 195.728 177.051 195.288C176.743 194.833 176.229 194.606 175.511 194.606C174.968 194.606 174.477 194.745 174.037 195.024C173.611 195.303 173.127 195.713 172.585 196.256V204H170.781ZM187.146 204.264C186.192 204.264 185.32 204.044 184.528 203.604C183.75 203.149 183.134 202.511 182.68 201.69C182.225 200.854 181.998 199.842 181.998 198.654C181.998 197.495 182.232 196.498 182.702 195.662C183.171 194.826 183.772 194.181 184.506 193.726C185.239 193.271 186.016 193.044 186.838 193.044C187.747 193.044 188.517 193.257 189.148 193.682C189.793 194.093 190.277 194.672 190.6 195.42C190.922 196.168 191.084 197.048 191.084 198.06C191.084 198.251 191.076 198.434 191.062 198.61C191.062 198.786 191.04 198.962 190.996 199.138H183.296V197.708H189.456C189.456 196.681 189.228 195.897 188.774 195.354C188.334 194.797 187.696 194.518 186.86 194.518C186.376 194.518 185.899 194.657 185.43 194.936C184.96 195.2 184.572 195.633 184.264 196.234C183.97 196.835 183.824 197.635 183.824 198.632C183.824 199.541 183.978 200.304 184.286 200.92C184.608 201.536 185.041 202.005 185.584 202.328C186.126 202.636 186.72 202.79 187.366 202.79C187.879 202.79 188.356 202.717 188.796 202.57C189.25 202.423 189.661 202.225 190.028 201.976L190.688 203.164C190.218 203.487 189.69 203.751 189.104 203.956C188.532 204.161 187.879 204.264 187.146 204.264ZM193.726 204V193.308H195.222L195.376 195.244H195.442C195.794 194.569 196.234 194.034 196.762 193.638C197.29 193.242 197.862 193.044 198.478 193.044C198.713 193.044 198.918 193.059 199.094 193.088C199.27 193.117 199.446 193.176 199.622 193.264L199.226 194.804C199.065 194.76 198.911 194.731 198.764 194.716C198.632 194.687 198.456 194.672 198.236 194.672C197.781 194.672 197.305 194.855 196.806 195.222C196.322 195.589 195.897 196.227 195.53 197.136V204H193.726ZM204.061 204.264C203.284 204.264 202.543 204.132 201.839 203.868C201.15 203.589 200.563 203.208 200.079 202.724L200.915 201.668C201.384 202.049 201.868 202.343 202.367 202.548C202.88 202.753 203.467 202.856 204.127 202.856C204.831 202.856 205.359 202.695 205.711 202.372C206.063 202.035 206.239 201.639 206.239 201.184C206.239 200.817 206.114 200.517 205.865 200.282C205.63 200.033 205.33 199.827 204.963 199.666C204.611 199.49 204.23 199.329 203.819 199.182C203.291 198.991 202.785 198.771 202.301 198.522C201.817 198.258 201.421 197.935 201.113 197.554C200.82 197.158 200.673 196.667 200.673 196.08C200.673 195.215 200.996 194.496 201.641 193.924C202.301 193.337 203.21 193.044 204.369 193.044C205.029 193.044 205.645 193.161 206.217 193.396C206.789 193.616 207.28 193.902 207.691 194.254L206.855 195.288C206.474 195.024 206.085 194.819 205.689 194.672C205.293 194.525 204.853 194.452 204.369 194.452C203.694 194.452 203.196 194.606 202.873 194.914C202.565 195.222 202.411 195.581 202.411 195.992C202.411 196.315 202.506 196.586 202.697 196.806C202.888 197.011 203.152 197.195 203.489 197.356C203.841 197.517 204.237 197.671 204.677 197.818C205.234 198.023 205.762 198.258 206.261 198.522C206.774 198.771 207.185 199.101 207.493 199.512C207.816 199.908 207.977 200.429 207.977 201.074C207.977 201.661 207.823 202.196 207.515 202.68C207.222 203.149 206.782 203.531 206.195 203.824C205.623 204.117 204.912 204.264 204.061 204.264ZM217.352 204.264C216.765 204.264 216.23 204.147 215.746 203.912C215.277 203.663 214.903 203.318 214.624 202.878C214.345 202.423 214.206 201.873 214.206 201.228C214.206 200.025 214.734 199.116 215.79 198.5C216.846 197.884 218.518 197.451 220.806 197.202C220.791 196.762 220.718 196.337 220.586 195.926C220.469 195.515 220.249 195.185 219.926 194.936C219.603 194.687 219.156 194.562 218.584 194.562C217.968 194.562 217.389 194.679 216.846 194.914C216.303 195.134 215.819 195.383 215.394 195.662L214.69 194.43C215.013 194.21 215.394 193.997 215.834 193.792C216.274 193.572 216.751 193.396 217.264 193.264C217.777 193.117 218.32 193.044 218.892 193.044C219.757 193.044 220.461 193.227 221.004 193.594C221.561 193.946 221.965 194.452 222.214 195.112C222.478 195.772 222.61 196.549 222.61 197.444V204H221.114L220.96 202.724H220.894C220.381 203.149 219.831 203.516 219.244 203.824C218.657 204.117 218.027 204.264 217.352 204.264ZM217.858 202.768C218.386 202.768 218.877 202.651 219.332 202.416C219.801 202.181 220.293 201.837 220.806 201.382V198.5C219.603 198.647 218.65 198.837 217.946 199.072C217.257 199.292 216.758 199.571 216.45 199.908C216.142 200.245 215.988 200.649 215.988 201.118C215.988 201.705 216.171 202.13 216.538 202.394C216.905 202.643 217.345 202.768 217.858 202.768ZM225.974 204V193.308H227.47L227.624 195.244H227.69C228.042 194.569 228.482 194.034 229.01 193.638C229.538 193.242 230.11 193.044 230.726 193.044C230.961 193.044 231.166 193.059 231.342 193.088C231.518 193.117 231.694 193.176 231.87 193.264L231.474 194.804C231.313 194.76 231.159 194.731 231.012 194.716C230.88 194.687 230.704 194.672 230.484 194.672C230.029 194.672 229.553 194.855 229.054 195.222C228.57 195.589 228.145 196.227 227.778 197.136V204H225.974ZM237.72 204.264C236.767 204.264 235.894 204.044 235.102 203.604C234.325 203.149 233.709 202.511 233.254 201.69C232.799 200.854 232.572 199.842 232.572 198.654C232.572 197.495 232.807 196.498 233.276 195.662C233.745 194.826 234.347 194.181 235.08 193.726C235.813 193.271 236.591 193.044 237.412 193.044C238.321 193.044 239.091 193.257 239.722 193.682C240.367 194.093 240.851 194.672 241.174 195.42C241.497 196.168 241.658 197.048 241.658 198.06C241.658 198.251 241.651 198.434 241.636 198.61C241.636 198.786 241.614 198.962 241.57 199.138H233.87V197.708H240.03C240.03 196.681 239.803 195.897 239.348 195.354C238.908 194.797 238.27 194.518 237.434 194.518C236.95 194.518 236.473 194.657 236.004 194.936C235.535 195.2 235.146 195.633 234.838 196.234C234.545 196.835 234.398 197.635 234.398 198.632C234.398 199.541 234.552 200.304 234.86 200.92C235.183 201.536 235.615 202.005 236.158 202.328C236.701 202.636 237.295 202.79 237.94 202.79C238.453 202.79 238.93 202.717 239.37 202.57C239.825 202.423 240.235 202.225 240.602 201.976L241.262 203.164C240.793 203.487 240.265 203.751 239.678 203.956C239.106 204.161 238.453 204.264 237.72 204.264ZM251.014 204L247.164 193.308H249.034L251.058 199.38C251.22 199.893 251.381 200.421 251.542 200.964C251.718 201.492 251.887 202.013 252.048 202.526H252.136C252.283 202.013 252.444 201.492 252.62 200.964C252.796 200.421 252.958 199.893 253.104 199.38L255.128 193.308H256.91L253.126 204H251.014ZM263.222 204.264C262.269 204.264 261.396 204.044 260.604 203.604C259.827 203.149 259.211 202.511 258.756 201.69C258.301 200.854 258.074 199.842 258.074 198.654C258.074 197.495 258.309 196.498 258.778 195.662C259.247 194.826 259.849 194.181 260.582 193.726C261.315 193.271 262.093 193.044 262.914 193.044C263.823 193.044 264.593 193.257 265.224 193.682C265.869 194.093 266.353 194.672 266.676 195.42C266.999 196.168 267.16 197.048 267.16 198.06C267.16 198.251 267.153 198.434 267.138 198.61C267.138 198.786 267.116 198.962 267.072 199.138H259.372V197.708H265.532C265.532 196.681 265.305 195.897 264.85 195.354C264.41 194.797 263.772 194.518 262.936 194.518C262.452 194.518 261.975 194.657 261.506 194.936C261.037 195.2 260.648 195.633 260.34 196.234C260.047 196.835 259.9 197.635 259.9 198.632C259.9 199.541 260.054 200.304 260.362 200.92C260.685 201.536 261.117 202.005 261.66 202.328C262.203 202.636 262.797 202.79 263.442 202.79C263.955 202.79 264.432 202.717 264.872 202.57C265.327 202.423 265.737 202.225 266.104 201.976L266.764 203.164C266.295 203.487 265.767 203.751 265.18 203.956C264.608 204.161 263.955 204.264 263.222 204.264ZM269.802 204V193.308H271.298L271.452 195.244H271.518C271.87 194.569 272.31 194.034 272.838 193.638C273.366 193.242 273.938 193.044 274.554 193.044C274.789 193.044 274.994 193.059 275.17 193.088C275.346 193.117 275.522 193.176 275.698 193.264L275.302 194.804C275.141 194.76 274.987 194.731 274.84 194.716C274.708 194.687 274.532 194.672 274.312 194.672C273.857 194.672 273.381 194.855 272.882 195.222C272.398 195.589 271.973 196.227 271.606 197.136V204H269.802ZM277.429 204V193.308H279.233V204H277.429ZM278.331 191.108C277.979 191.108 277.686 190.998 277.451 190.778C277.231 190.558 277.121 190.272 277.121 189.92C277.121 189.568 277.231 189.282 277.451 189.062C277.686 188.842 277.979 188.732 278.331 188.732C278.683 188.732 278.969 188.842 279.189 189.062C279.424 189.282 279.541 189.568 279.541 189.92C279.541 190.272 279.424 190.558 279.189 190.778C278.969 190.998 278.683 191.108 278.331 191.108ZM283.151 204V191.614C283.151 190.895 283.261 190.272 283.481 189.744C283.701 189.201 284.038 188.791 284.493 188.512C284.962 188.219 285.556 188.072 286.275 188.072C286.598 188.072 286.913 188.109 287.221 188.182C287.544 188.241 287.822 188.321 288.057 188.424L287.661 189.744C287.236 189.612 286.832 189.546 286.451 189.546C285.952 189.546 285.578 189.722 285.329 190.074C285.08 190.411 284.955 190.925 284.955 191.614V204H283.151ZM281.567 194.782V193.418L283.239 193.308H287.221V194.782H281.567ZM289.443 208.598C289.208 208.598 288.981 208.576 288.761 208.532C288.556 208.488 288.365 208.437 288.189 208.378L288.585 206.97C288.717 207.014 288.849 207.043 288.981 207.058C289.113 207.087 289.238 207.102 289.355 207.102C289.971 207.102 290.47 206.882 290.851 206.442C291.247 206.017 291.555 205.474 291.775 204.814L292.017 204.022L287.727 193.308H289.597L291.775 199.226C291.951 199.681 292.127 200.172 292.303 200.7C292.479 201.228 292.648 201.741 292.809 202.24H292.897C293.058 201.741 293.212 201.235 293.359 200.722C293.52 200.194 293.667 199.695 293.799 199.226L295.713 193.308H297.473L293.447 204.88C293.198 205.584 292.897 206.215 292.545 206.772C292.193 207.344 291.768 207.791 291.269 208.114C290.77 208.437 290.162 208.598 289.443 208.598ZM299.536 204V193.308H301.34V204H299.536ZM300.438 191.108C300.086 191.108 299.793 190.998 299.558 190.778C299.338 190.558 299.228 190.272 299.228 189.92C299.228 189.568 299.338 189.282 299.558 189.062C299.793 188.842 300.086 188.732 300.438 188.732C300.79 188.732 301.076 188.842 301.296 189.062C301.531 189.282 301.648 189.568 301.648 189.92C301.648 190.272 301.531 190.558 301.296 190.778C301.076 190.998 300.79 191.108 300.438 191.108ZM304.95 204V193.308H306.446L306.6 194.848H306.666C307.18 194.335 307.722 193.909 308.294 193.572C308.866 193.22 309.519 193.044 310.252 193.044C311.382 193.044 312.203 193.403 312.716 194.122C313.244 194.826 313.508 195.86 313.508 197.224V204H311.704V197.466C311.704 196.454 311.543 195.728 311.22 195.288C310.912 194.833 310.399 194.606 309.68 194.606C309.138 194.606 308.646 194.745 308.206 195.024C307.781 195.303 307.297 195.713 306.754 196.256V204H304.95ZM320.59 208.928C319.724 208.928 318.954 208.811 318.28 208.576C317.62 208.356 317.099 208.033 316.718 207.608C316.351 207.183 316.168 206.662 316.168 206.046C316.168 205.591 316.307 205.151 316.586 204.726C316.864 204.315 317.246 203.949 317.73 203.626V203.538C317.466 203.362 317.238 203.135 317.048 202.856C316.872 202.563 316.784 202.211 316.784 201.8C316.784 201.345 316.908 200.949 317.158 200.612C317.422 200.275 317.686 200.011 317.95 199.82V199.732C317.612 199.439 317.297 199.043 317.004 198.544C316.71 198.045 316.564 197.481 316.564 196.85C316.564 196.073 316.747 195.398 317.114 194.826C317.495 194.254 317.986 193.814 318.588 193.506C319.204 193.198 319.871 193.044 320.59 193.044C320.883 193.044 321.162 193.073 321.426 193.132C321.69 193.176 321.917 193.235 322.108 193.308H325.826V194.694H323.604V194.782C323.868 195.017 324.08 195.31 324.242 195.662C324.418 196.014 324.506 196.432 324.506 196.916C324.506 197.679 324.33 198.339 323.978 198.896C323.626 199.439 323.156 199.864 322.57 200.172C321.983 200.465 321.323 200.612 320.59 200.612C320.326 200.612 320.054 200.583 319.776 200.524C319.497 200.451 319.233 200.355 318.984 200.238C318.808 200.399 318.646 200.575 318.5 200.766C318.368 200.957 318.302 201.206 318.302 201.514C318.302 201.851 318.434 202.13 318.698 202.35C318.976 202.57 319.475 202.68 320.194 202.68H322.262C323.508 202.68 324.44 202.885 325.056 203.296C325.686 203.692 326.002 204.337 326.002 205.232C326.002 205.892 325.782 206.501 325.342 207.058C324.902 207.615 324.271 208.063 323.45 208.4C322.643 208.752 321.69 208.928 320.59 208.928ZM320.59 199.402C321 199.402 321.374 199.299 321.712 199.094C322.064 198.874 322.342 198.573 322.548 198.192C322.753 197.811 322.856 197.363 322.856 196.85C322.856 196.058 322.636 195.449 322.196 195.024C321.756 194.584 321.22 194.364 320.59 194.364C319.959 194.364 319.424 194.584 318.984 195.024C318.544 195.449 318.324 196.058 318.324 196.85C318.324 197.363 318.426 197.811 318.632 198.192C318.837 198.573 319.108 198.874 319.446 199.094C319.798 199.299 320.179 199.402 320.59 199.402ZM320.854 207.674C321.528 207.674 322.115 207.571 322.614 207.366C323.127 207.161 323.523 206.889 323.802 206.552C324.095 206.215 324.242 205.863 324.242 205.496C324.242 204.997 324.051 204.653 323.67 204.462C323.303 204.271 322.775 204.176 322.086 204.176H320.238C320.032 204.176 319.805 204.161 319.556 204.132C319.321 204.103 319.086 204.059 318.852 204C318.456 204.279 318.17 204.572 317.994 204.88C317.832 205.188 317.752 205.496 317.752 205.804C317.752 206.376 318.023 206.831 318.566 207.168C319.123 207.505 319.886 207.674 320.854 207.674ZM332.648 208.598C332.413 208.598 332.186 208.576 331.966 208.532C331.761 208.488 331.57 208.437 331.394 208.378L331.79 206.97C331.922 207.014 332.054 207.043 332.186 207.058C332.318 207.087 332.443 207.102 332.56 207.102C333.176 207.102 333.675 206.882 334.056 206.442C334.452 206.017 334.76 205.474 334.98 204.814L335.222 204.022L330.932 193.308H332.802L334.98 199.226C335.156 199.681 335.332 200.172 335.508 200.7C335.684 201.228 335.853 201.741 336.014 202.24H336.102C336.263 201.741 336.417 201.235 336.564 200.722C336.725 200.194 336.872 199.695 337.004 199.226L338.918 193.308H340.678L336.652 204.88C336.403 205.584 336.102 206.215 335.75 206.772C335.398 207.344 334.973 207.791 334.474 208.114C333.975 208.437 333.367 208.598 332.648 208.598ZM346.814 204.264C345.948 204.264 345.134 204.044 344.372 203.604C343.624 203.164 343.015 202.526 342.546 201.69C342.091 200.854 341.864 199.849 341.864 198.676C341.864 197.473 342.091 196.454 342.546 195.618C343.015 194.782 343.624 194.144 344.372 193.704C345.134 193.264 345.948 193.044 346.814 193.044C347.694 193.044 348.508 193.264 349.256 193.704C350.004 194.144 350.605 194.782 351.06 195.618C351.529 196.454 351.764 197.473 351.764 198.676C351.764 199.849 351.529 200.854 351.06 201.69C350.605 202.526 350.004 203.164 349.256 203.604C348.508 204.044 347.694 204.264 346.814 204.264ZM346.814 202.768C347.43 202.768 347.972 202.599 348.442 202.262C348.911 201.91 349.27 201.426 349.52 200.81C349.769 200.194 349.894 199.483 349.894 198.676C349.894 197.855 349.769 197.136 349.52 196.52C349.27 195.889 348.911 195.405 348.442 195.068C347.972 194.716 347.43 194.54 346.814 194.54C346.198 194.54 345.655 194.716 345.186 195.068C344.731 195.405 344.372 195.889 344.108 196.52C343.858 197.136 343.734 197.855 343.734 198.676C343.734 199.483 343.858 200.194 344.108 200.81C344.372 201.426 344.731 201.91 345.186 202.262C345.655 202.599 346.198 202.768 346.814 202.768ZM357.703 204.264C356.574 204.264 355.745 203.912 355.217 203.208C354.704 202.489 354.447 201.448 354.447 200.084V193.308H356.251V199.842C356.251 200.839 356.405 201.565 356.713 202.02C357.036 202.46 357.549 202.68 358.253 202.68C358.796 202.68 359.28 202.541 359.705 202.262C360.145 201.969 360.622 201.514 361.135 200.898V193.308H362.939V204H361.443L361.289 202.328H361.223C360.739 202.915 360.211 203.384 359.639 203.736C359.082 204.088 358.437 204.264 357.703 204.264ZM366.546 204V193.308H368.042L368.196 195.244H368.262C368.614 194.569 369.054 194.034 369.582 193.638C370.11 193.242 370.682 193.044 371.298 193.044C371.533 193.044 371.738 193.059 371.914 193.088C372.09 193.117 372.266 193.176 372.442 193.264L372.046 194.804C371.885 194.76 371.731 194.731 371.584 194.716C371.452 194.687 371.276 194.672 371.056 194.672C370.602 194.672 370.125 194.855 369.626 195.222C369.142 195.589 368.717 196.227 368.35 197.136V204H366.546ZM381.371 204.264C380.594 204.264 379.853 204.132 379.149 203.868C378.46 203.589 377.873 203.208 377.389 202.724L378.225 201.668C378.695 202.049 379.179 202.343 379.677 202.548C380.191 202.753 380.777 202.856 381.437 202.856C382.141 202.856 382.669 202.695 383.021 202.372C383.373 202.035 383.549 201.639 383.549 201.184C383.549 200.817 383.425 200.517 383.175 200.282C382.941 200.033 382.64 199.827 382.273 199.666C381.921 199.49 381.54 199.329 381.129 199.182C380.601 198.991 380.095 198.771 379.611 198.522C379.127 198.258 378.731 197.935 378.423 197.554C378.13 197.158 377.983 196.667 377.983 196.08C377.983 195.215 378.306 194.496 378.951 193.924C379.611 193.337 380.521 193.044 381.679 193.044C382.339 193.044 382.955 193.161 383.527 193.396C384.099 193.616 384.591 193.902 385.001 194.254L384.165 195.288C383.784 195.024 383.395 194.819 382.999 194.672C382.603 194.525 382.163 194.452 381.679 194.452C381.005 194.452 380.506 194.606 380.183 194.914C379.875 195.222 379.721 195.581 379.721 195.992C379.721 196.315 379.817 196.586 380.007 196.806C380.198 197.011 380.462 197.195 380.799 197.356C381.151 197.517 381.547 197.671 381.987 197.818C382.545 198.023 383.073 198.258 383.571 198.522C384.085 198.771 384.495 199.101 384.803 199.512C385.126 199.908 385.287 200.429 385.287 201.074C385.287 201.661 385.133 202.196 384.825 202.68C384.532 203.149 384.092 203.531 383.505 203.824C382.933 204.117 382.222 204.264 381.371 204.264ZM390.918 204.264C389.789 204.264 388.96 203.912 388.432 203.208C387.919 202.489 387.662 201.448 387.662 200.084V193.308H389.466V199.842C389.466 200.839 389.62 201.565 389.928 202.02C390.251 202.46 390.764 202.68 391.468 202.68C392.011 202.68 392.495 202.541 392.92 202.262C393.36 201.969 393.837 201.514 394.35 200.898V193.308H396.154V204H394.658L394.504 202.328H394.438C393.954 202.915 393.426 203.384 392.854 203.736C392.297 204.088 391.652 204.264 390.918 204.264ZM404.491 204.264C403.992 204.264 403.479 204.147 402.951 203.912C402.423 203.663 401.917 203.325 401.433 202.9H401.367L401.213 204H399.761V188.336H401.565V192.604L401.521 194.54C402.005 194.115 402.533 193.763 403.105 193.484C403.692 193.191 404.278 193.044 404.865 193.044C405.789 193.044 406.566 193.271 407.197 193.726C407.828 194.166 408.304 194.797 408.627 195.618C408.95 196.425 409.111 197.378 409.111 198.478C409.111 199.695 408.891 200.737 408.451 201.602C408.026 202.467 407.461 203.127 406.757 203.582C406.053 204.037 405.298 204.264 404.491 204.264ZM404.183 202.746C404.77 202.746 405.29 202.577 405.745 202.24C406.214 201.903 406.581 201.419 406.845 200.788C407.109 200.143 407.241 199.38 407.241 198.5C407.241 197.723 407.146 197.041 406.955 196.454C406.764 195.853 406.464 195.391 406.053 195.068C405.642 194.731 405.1 194.562 404.425 194.562C403.985 194.562 403.523 194.687 403.039 194.936C402.57 195.171 402.078 195.53 401.565 196.014V201.624C402.034 202.035 402.496 202.328 402.951 202.504C403.42 202.665 403.831 202.746 404.183 202.746ZM411.921 204V193.308H413.417L413.571 194.848H413.637C414.107 194.349 414.613 193.924 415.155 193.572C415.713 193.22 416.314 193.044 416.959 193.044C417.781 193.044 418.419 193.227 418.873 193.594C419.343 193.961 419.687 194.459 419.907 195.09C420.465 194.474 421.029 193.983 421.601 193.616C422.173 193.235 422.782 193.044 423.427 193.044C424.542 193.044 425.363 193.403 425.891 194.122C426.419 194.826 426.683 195.86 426.683 197.224V204H424.879V197.466C424.879 196.454 424.718 195.728 424.395 195.288C424.073 194.833 423.574 194.606 422.899 194.606C422.474 194.606 422.041 194.745 421.601 195.024C421.176 195.288 420.714 195.699 420.215 196.256V204H418.411V197.466C418.411 196.454 418.25 195.728 417.927 195.288C417.605 194.833 417.099 194.606 416.409 194.606C415.603 194.606 414.708 195.156 413.725 196.256V204H411.921ZM430.161 204V193.308H431.965V204H430.161ZM431.063 191.108C430.711 191.108 430.418 190.998 430.183 190.778C429.963 190.558 429.853 190.272 429.853 189.92C429.853 189.568 429.963 189.282 430.183 189.062C430.418 188.842 430.711 188.732 431.063 188.732C431.415 188.732 431.701 188.842 431.921 189.062C432.156 189.282 432.273 189.568 432.273 189.92C432.273 190.272 432.156 190.558 431.921 190.778C431.701 190.998 431.415 191.108 431.063 191.108ZM438.369 204.264C437.592 204.264 436.851 204.132 436.147 203.868C435.458 203.589 434.871 203.208 434.387 202.724L435.223 201.668C435.693 202.049 436.177 202.343 436.675 202.548C437.189 202.753 437.775 202.856 438.435 202.856C439.139 202.856 439.667 202.695 440.019 202.372C440.371 202.035 440.547 201.639 440.547 201.184C440.547 200.817 440.423 200.517 440.173 200.282C439.939 200.033 439.638 199.827 439.271 199.666C438.919 199.49 438.538 199.329 438.127 199.182C437.599 198.991 437.093 198.771 436.609 198.522C436.125 198.258 435.729 197.935 435.421 197.554C435.128 197.158 434.981 196.667 434.981 196.08C434.981 195.215 435.304 194.496 435.949 193.924C436.609 193.337 437.519 193.044 438.677 193.044C439.337 193.044 439.953 193.161 440.525 193.396C441.097 193.616 441.589 193.902 441.999 194.254L441.163 195.288C440.782 195.024 440.393 194.819 439.997 194.672C439.601 194.525 439.161 194.452 438.677 194.452C438.003 194.452 437.504 194.606 437.181 194.914C436.873 195.222 436.719 195.581 436.719 195.992C436.719 196.315 436.815 196.586 437.005 196.806C437.196 197.011 437.46 197.195 437.797 197.356C438.149 197.517 438.545 197.671 438.985 197.818C439.543 198.023 440.071 198.258 440.569 198.522C441.083 198.771 441.493 199.101 441.801 199.512C442.124 199.908 442.285 200.429 442.285 201.074C442.285 201.661 442.131 202.196 441.823 202.68C441.53 203.149 441.09 203.531 440.503 203.824C439.931 204.117 439.22 204.264 438.369 204.264ZM447.586 204.264C446.809 204.264 446.068 204.132 445.364 203.868C444.675 203.589 444.088 203.208 443.604 202.724L444.44 201.668C444.91 202.049 445.394 202.343 445.892 202.548C446.406 202.753 446.992 202.856 447.652 202.856C448.356 202.856 448.884 202.695 449.236 202.372C449.588 202.035 449.764 201.639 449.764 201.184C449.764 200.817 449.64 200.517 449.39 200.282C449.156 200.033 448.855 199.827 448.488 199.666C448.136 199.49 447.755 199.329 447.344 199.182C446.816 198.991 446.31 198.771 445.826 198.522C445.342 198.258 444.946 197.935 444.638 197.554C444.345 197.158 444.198 196.667 444.198 196.08C444.198 195.215 444.521 194.496 445.166 193.924C445.826 193.337 446.736 193.044 447.894 193.044C448.554 193.044 449.17 193.161 449.742 193.396C450.314 193.616 450.806 193.902 451.216 194.254L450.38 195.288C449.999 195.024 449.61 194.819 449.214 194.672C448.818 194.525 448.378 194.452 447.894 194.452C447.22 194.452 446.721 194.606 446.398 194.914C446.09 195.222 445.936 195.581 445.936 195.992C445.936 196.315 446.032 196.586 446.222 196.806C446.413 197.011 446.677 197.195 447.014 197.356C447.366 197.517 447.762 197.671 448.202 197.818C448.76 198.023 449.288 198.258 449.786 198.522C450.3 198.771 450.71 199.101 451.018 199.512C451.341 199.908 451.502 200.429 451.502 201.074C451.502 201.661 451.348 202.196 451.04 202.68C450.747 203.149 450.307 203.531 449.72 203.824C449.148 204.117 448.437 204.264 447.586 204.264ZM454.009 204V193.308H455.813V204H454.009ZM454.911 191.108C454.559 191.108 454.266 190.998 454.031 190.778C453.811 190.558 453.701 190.272 453.701 189.92C453.701 189.568 453.811 189.282 454.031 189.062C454.266 188.842 454.559 188.732 454.911 188.732C455.263 188.732 455.549 188.842 455.769 189.062C456.004 189.282 456.121 189.568 456.121 189.92C456.121 190.272 456.004 190.558 455.769 190.778C455.549 190.998 455.263 191.108 454.911 191.108ZM463.581 204.264C462.716 204.264 461.902 204.044 461.139 203.604C460.391 203.164 459.782 202.526 459.313 201.69C458.858 200.854 458.631 199.849 458.631 198.676C458.631 197.473 458.858 196.454 459.313 195.618C459.782 194.782 460.391 194.144 461.139 193.704C461.902 193.264 462.716 193.044 463.581 193.044C464.461 193.044 465.275 193.264 466.023 193.704C466.771 194.144 467.372 194.782 467.827 195.618C468.296 196.454 468.531 197.473 468.531 198.676C468.531 199.849 468.296 200.854 467.827 201.69C467.372 202.526 466.771 203.164 466.023 203.604C465.275 204.044 464.461 204.264 463.581 204.264ZM463.581 202.768C464.197 202.768 464.74 202.599 465.209 202.262C465.678 201.91 466.038 201.426 466.287 200.81C466.536 200.194 466.661 199.483 466.661 198.676C466.661 197.855 466.536 197.136 466.287 196.52C466.038 195.889 465.678 195.405 465.209 195.068C464.74 194.716 464.197 194.54 463.581 194.54C462.965 194.54 462.422 194.716 461.953 195.068C461.498 195.405 461.139 195.889 460.875 196.52C460.626 197.136 460.501 197.855 460.501 198.676C460.501 199.483 460.626 200.194 460.875 200.81C461.139 201.426 461.498 201.91 461.953 202.262C462.422 202.599 462.965 202.768 463.581 202.768ZM471.347 204V193.308H472.843L472.997 194.848H473.063C473.576 194.335 474.119 193.909 474.691 193.572C475.263 193.22 475.916 193.044 476.649 193.044C477.778 193.044 478.6 193.403 479.113 194.122C479.641 194.826 479.905 195.86 479.905 197.224V204H478.101V197.466C478.101 196.454 477.94 195.728 477.617 195.288C477.309 194.833 476.796 194.606 476.077 194.606C475.534 194.606 475.043 194.745 474.603 195.024C474.178 195.303 473.694 195.713 473.151 196.256V204H471.347ZM484.324 204.264C483.972 204.264 483.664 204.139 483.4 203.89C483.136 203.626 483.004 203.296 483.004 202.9C483.004 202.475 483.136 202.137 483.4 201.888C483.664 201.624 483.972 201.492 484.324 201.492C484.691 201.492 484.999 201.624 485.248 201.888C485.498 202.137 485.622 202.475 485.622 202.9C485.622 203.296 485.498 203.626 485.248 203.89C484.999 204.139 484.691 204.264 484.324 204.264ZM489.803 204.264C489.451 204.264 489.143 204.139 488.879 203.89C488.615 203.626 488.483 203.296 488.483 202.9C488.483 202.475 488.615 202.137 488.879 201.888C489.143 201.624 489.451 201.492 489.803 201.492C490.169 201.492 490.477 201.624 490.727 201.888C490.976 202.137 491.101 202.475 491.101 202.9C491.101 203.296 490.976 203.626 490.727 203.89C490.477 204.139 490.169 204.264 489.803 204.264ZM495.281 204.264C494.929 204.264 494.621 204.139 494.357 203.89C494.093 203.626 493.961 203.296 493.961 202.9C493.961 202.475 494.093 202.137 494.357 201.888C494.621 201.624 494.929 201.492 495.281 201.492C495.648 201.492 495.956 201.624 496.205 201.888C496.455 202.137 496.579 202.475 496.579 202.9C496.579 203.296 496.455 203.626 496.205 203.89C495.956 204.139 495.648 204.264 495.281 204.264Z" fill="white"/>
</g>
<defs>
<clipPath id="clip0_495_3539">
<rect width="600" height="407" fill="white"/>
</clipPath>
</defs>
</svg>
