<svg width="600" height="407" viewBox="0 0 600 407" fill="none" xmlns="http://www.w3.org/2000/svg">
<g clip-path="url(#clip0_495_1358)">
<rect width="600" height="407" fill="#131414"/>
<path d="M600 125.344L474 -0.656498H537L600 62.3435V125.344Z" fill="#376E37"/>
<path d="M518.92 12.4081L517.523 21.1136L537.439 22.1729" stroke="white" stroke-width="1.8" stroke-linecap="round"/>
<path d="M535.578 38.9304L542.578 25.5208L543.963 26.9053L540.027 33.9835C539.737 34.5228 539.462 35.0257 539.203 35.4924C538.954 35.9488 538.7 36.4103 538.44 36.877C538.191 37.3333 537.927 37.8259 537.647 38.3548L537.709 38.417C538.228 38.1266 538.715 37.857 539.171 37.6081C539.638 37.3488 540.1 37.0947 540.556 36.8458C541.023 36.5866 541.526 36.3117 542.065 36.0214L549.268 32.21L550.59 33.5323L537.087 40.4394L535.578 38.9304ZM544.305 48.0309C543.631 47.3567 543.169 46.5841 542.921 45.713C542.692 44.8418 542.708 43.9551 542.967 43.0528C543.237 42.1402 543.792 41.2638 544.632 40.4238C545.451 39.6045 546.322 39.0652 547.245 38.8059C548.168 38.5467 549.05 38.5156 549.89 38.7126C550.73 38.9096 551.44 39.2986 552.021 39.8793C552.664 40.5223 553.058 41.2172 553.203 41.9639C553.369 42.7106 553.302 43.4625 553.001 44.2195C552.7 44.9766 552.192 45.713 551.477 46.4286C551.342 46.5634 551.207 46.6878 551.072 46.8019C550.948 46.9264 550.808 47.0352 550.652 47.1286L545.207 41.6839L546.218 40.6727L550.574 45.0285C551.3 44.3025 551.694 43.5869 551.757 42.8817C551.84 42.1765 551.585 41.5283 550.994 40.9372C550.652 40.5949 550.216 40.3564 549.688 40.2216C549.169 40.0764 548.588 40.1075 547.945 40.3149C547.313 40.5327 546.644 40.9942 545.938 41.6994C545.295 42.3424 544.865 42.9906 544.647 43.644C544.44 44.3077 544.414 44.9455 544.57 45.5574C544.735 46.1589 545.047 46.6878 545.503 47.1441C545.866 47.5071 546.255 47.7923 546.67 47.9997C547.095 48.2175 547.525 48.3679 547.961 48.4509L547.587 49.7576C547.027 49.6539 546.467 49.4672 545.907 49.1976C545.358 48.9383 544.824 48.5494 544.305 48.0309ZM549.145 52.497L556.705 44.9366L557.763 45.9944L556.503 47.4723L556.549 47.519C557.275 47.2908 557.965 47.2234 558.618 47.3167C559.272 47.4101 559.816 47.6745 560.252 48.1101C560.418 48.276 560.553 48.4316 560.656 48.5768C560.76 48.722 560.843 48.8879 560.905 49.0746L559.536 49.8835C559.453 49.7383 559.365 49.6087 559.272 49.4946C559.199 49.3805 559.085 49.2457 558.929 49.0901C558.608 48.7686 558.141 48.5612 557.529 48.4679C556.928 48.3849 556.176 48.5353 555.274 48.919L550.42 53.7726L549.145 52.497ZM554.538 57.8901L562.098 50.3297L563.374 51.6053L555.813 59.1657L554.538 57.8901ZM564.291 49.4118C564.043 49.1629 563.913 48.8777 563.903 48.5562C563.903 48.2451 564.027 47.9651 564.276 47.7162C564.525 47.4673 564.805 47.3429 565.116 47.3429C565.437 47.3532 565.723 47.4829 565.972 47.7318C566.22 47.9807 566.345 48.2607 566.345 48.5718C566.355 48.8933 566.236 49.1785 565.987 49.4274C565.738 49.6763 565.453 49.7956 565.131 49.7852C564.82 49.7852 564.54 49.6607 564.291 49.4118ZM558.584 61.9362L567.342 53.1779C567.85 52.6698 568.369 52.3068 568.898 52.089C569.437 51.8608 569.966 51.809 570.484 51.9334C571.024 52.0579 571.547 52.3742 572.056 52.8824C572.284 53.1105 572.481 53.3594 572.647 53.6291C572.833 53.8987 572.973 54.1528 573.067 54.3913L571.853 55.0447C571.646 54.6506 571.407 54.3187 571.138 54.0491C570.785 53.6965 570.396 53.5565 569.971 53.6291C569.556 53.6913 569.105 53.9661 568.618 54.4536L559.859 63.2118L558.584 61.9362ZM563.982 54.298L564.946 53.3335L566.206 54.438L569.022 57.2537L567.98 58.296L563.982 54.298ZM562.908 66.2607L570.469 58.7003L571.744 59.9759L564.184 67.5363L562.908 66.2607ZM572.662 57.7825C572.413 57.5336 572.284 57.2484 572.273 56.9269C572.273 56.6158 572.398 56.3358 572.647 56.0869C572.895 55.838 573.175 55.7135 573.487 55.7135C573.808 55.7239 574.093 55.8535 574.342 56.1024C574.591 56.3513 574.716 56.6313 574.716 56.9425C574.726 57.264 574.607 57.5492 574.358 57.7981C574.109 58.047 573.824 58.1662 573.502 58.1558C573.191 58.1558 572.911 58.0314 572.662 57.7825ZM569.615 73.3403C568.94 72.6662 568.479 71.8936 568.23 71.0224C568.002 70.1513 568.017 69.2645 568.277 68.3623C568.546 67.4496 569.101 66.5733 569.941 65.7333C570.76 64.9139 571.632 64.3747 572.555 64.1154C573.478 63.8561 574.359 63.825 575.199 64.0221C576.039 64.2191 576.75 64.608 577.33 65.1888C577.973 65.8318 578.368 66.5266 578.513 67.2733C578.679 68.02 578.611 68.7719 578.311 69.529C578.01 70.2861 577.502 71.0224 576.786 71.738C576.651 71.8728 576.516 71.9973 576.382 72.1114C576.257 72.2358 576.117 72.3447 575.961 72.438L570.517 66.9933L571.528 65.9822L575.884 70.3379C576.61 69.612 577.004 68.8964 577.066 68.1912C577.149 67.4859 576.895 66.8378 576.304 66.2466C575.961 65.9044 575.526 65.6658 574.997 65.531C574.478 65.3858 573.898 65.4169 573.255 65.6244C572.622 65.8421 571.953 66.3036 571.248 67.0089C570.605 67.6519 570.175 68.3 569.957 68.9534C569.749 69.6172 569.723 70.255 569.879 70.8668C570.045 71.4684 570.356 71.9973 570.812 72.4536C571.175 72.8166 571.564 73.1018 571.979 73.3092C572.404 73.527 572.835 73.6774 573.27 73.7603L572.897 75.0671C572.337 74.9634 571.777 74.7767 571.217 74.507C570.667 74.2478 570.133 73.8589 569.615 73.3403ZM576.85 80.5755C575.896 79.6213 575.476 78.5168 575.59 77.262C575.724 76.0071 576.419 74.7522 577.674 73.4973C578.493 72.678 579.349 72.1232 580.241 71.8328C581.154 71.5424 582.02 71.4854 582.839 71.6617C583.658 71.838 584.358 72.2165 584.939 72.7973C585.385 73.2432 585.686 73.6996 585.841 74.1663C586.018 74.6329 586.132 75.1722 586.183 75.7841L587.412 74.4307L590.321 71.5217L591.613 72.8128L580.537 83.889L579.479 82.8311L580.257 81.8355L580.21 81.7889C579.629 81.7889 579.033 81.7007 578.421 81.5244C577.819 81.3377 577.296 81.0214 576.85 80.5755ZM578.203 79.7821C578.556 80.1347 578.976 80.3784 579.463 80.5132C579.951 80.6481 580.521 80.6999 581.174 80.6688L585.126 76.7175C585.105 76.116 585.001 75.6078 584.815 75.193C584.638 74.7678 584.394 74.3996 584.083 74.0885C583.679 73.684 583.186 73.4403 582.606 73.3573C582.045 73.2744 581.449 73.3521 580.817 73.5907C580.194 73.8188 579.593 74.2233 579.012 74.8041C578.11 75.7063 577.581 76.5982 577.425 77.4798C577.28 78.3509 577.539 79.1184 578.203 79.7821Z" fill="white"/>
</g>
<defs>
<clipPath id="clip0_495_1358">
<rect width="600" height="407" fill="white"/>
</clipPath>
</defs>
</svg>
