<svg width="94" height="60" viewBox="0 0 94 60" fill="none" xmlns="http://www.w3.org/2000/svg">
<path fill-rule="evenodd" clip-rule="evenodd" d="M10.7733 17.4515C9.81403 17.4515 9.15469 17.5183 8.79502 17.6522C8.43547 17.7859 8.14861 18.0058 7.93444 18.3119C7.72038 18.6182 7.61335 18.9783 7.61335 19.3923C7.61335 20.0908 7.82965 20.591 8.26211 20.8929C8.69447 21.1948 9.48447 21.3458 10.6319 21.3458L11.7623 21.3458L11.7623 17.4515L10.7733 17.4515ZM20.8357 16.5477L22.3156 16.5477L22.3156 17.9981L20.8357 17.9981L20.8357 16.5477ZM18.6651 16.5477L20.145 16.5477L20.145 17.9981L18.6651 17.9981L18.6651 16.5477ZM11.5477 13.9311L15.3702 13.9311L15.3702 32.8996L11.7623 32.8996L11.7623 24.8661L11.4322 24.8661L7.17007 32.8996L3.22605 32.8996L7.71604 24.4664C6.51352 24.0366 5.61392 23.4026 5.01701 22.5643C4.41998 21.7262 4.12152 20.6838 4.12152 19.4373C4.12152 18.251 4.39177 17.2238 4.93238 16.3555C5.47299 15.4872 6.1873 14.8661 7.07531 14.4921C7.96343 14.1182 9.45415 13.9311 11.5477 13.9311ZM49.0492 4.02209e-06L49.0729 0.0189459L49.0968 4.02626e-06L68.278 15.2398L68.2525 15.2718L90.2988 32.8996L79.8879 32.8996L49.0729 8.41677L18.2581 32.8996L15.3702 32.8996L15.3702 26.8218L16.5526 25.8798L16.4946 25.8798L16.4946 19.041L17.9745 19.041L17.9745 24.747L18.7344 24.1416L18.6651 24.1416L18.6651 19.041L20.145 19.041L20.145 22.9647L20.8357 22.4159L20.8357 19.041L22.3156 19.041L22.3156 21.2401L23.0063 20.6913L23.0063 15.5048L22.3156 15.5048L20.8357 15.5048L20.145 15.5048L18.6651 15.5048L17.9745 15.5048L16.4946 15.5048L16.4946 16.5477L17.9745 16.5477L17.9745 17.9981L16.4946 17.9981L16.4946 13.8753L16.4946 13.8752L20.8357 13.8752L22.3156 13.8752L25.7688 13.8752L25.7688 15.5048L24.4862 15.5048L24.4862 19.5155L49.0492 4.02209e-06Z" fill="#EE2A7B"/>
<path fill-rule="evenodd" clip-rule="evenodd" d="M77.4659 34.1119H85.2712C86.8399 34.1119 87.6237 34.8949 87.6237 36.4608V42.2505H83.7461V37.3706H79.0067V42.052L86.7786 49.3636C87.3416 49.8929 87.6237 50.5932 87.6237 51.4644V57.6346C87.6237 59.2115 86.8399 60 85.2712 60H77.4659C75.9084 60 75.1302 59.2115 75.1302 57.6346V51.4644H79.0067V56.7413H83.7461V51.6629L75.9753 44.3183C75.4112 43.7779 75.1302 43.0886 75.1302 42.2505V36.4939C75.1302 34.9059 75.9084 34.1119 77.4659 34.1119ZM8.25531 34.1119H16.3581C17.9378 34.1119 18.7277 34.9059 18.7277 36.4939V42.019H14.8336V37.4369H9.7797V56.6751H14.8336V49.4297H11.9505V46.1379H18.7277V57.6346C18.7277 59.2115 17.9378 60 16.3581 60H8.20559C6.67006 60 5.90234 59.2115 5.90234 57.6346V36.4939C5.90234 34.9059 6.68667 34.1119 8.25531 34.1119ZM58.0278 28.9963H62.6713V42.111L67.831 28.9963H72.9116V29.2142L66.6013 43.9336L73.6853 60H68.5658L62.6713 46.1722V60H58.0278V28.9963Z" fill="white"/>
<path fill-rule="evenodd" clip-rule="evenodd" d="M54.4004 19.6283L37.8317 19.6283L37.8317 24.9682L48.3707 24.9682L48.3707 36.7572L39.3005 36.7572L39.3005 41.994L48.3707 41.994L48.3707 54.6601L37.6771 54.6601L37.6771 60L54.4004 60L54.4004 19.6283Z" fill="white"/>
<path fill-rule="evenodd" clip-rule="evenodd" d="M22.0684 31.4498H33.8873V35.2261H26.3695V43.5631H32.8393V47.2664H26.3695V56.2237H33.9977V60H22.0684V31.4498Z" fill="#EE2A7B"/>
</svg>
