<svg width="81" height="105" viewBox="0 0 81 105" fill="none" xmlns="http://www.w3.org/2000/svg">
<path d="M10.5 105C7.75001 105 5.39501 104.02 3.43501 102.06C1.47501 100.1 0.496675 97.7467 0.500008 95V45C0.500008 42.25 1.48001 39.895 3.44001 37.935C5.40001 35.975 7.75334 34.9967 10.5 35H15.5V25C15.5 18.0833 17.9383 12.1867 22.815 7.31C27.6917 2.43334 33.5867 -0.00332992 40.5 3.4153e-06C47.4167 3.4153e-06 53.3133 2.43834 58.19 7.315C63.0667 12.1917 65.5033 18.0867 65.5 25V35H70.5C73.25 35 75.605 35.98 77.565 37.94C79.525 39.9 80.5033 42.2533 80.5 45V95C80.5 97.75 79.52 100.105 77.56 102.065C75.6 104.025 73.2467 105.003 70.5 105H10.5ZM40.5 80C43.25 80 45.605 79.02 47.565 77.06C49.525 75.1 50.5033 72.7467 50.5 70C50.5 67.25 49.52 64.895 47.56 62.935C45.6 60.975 43.2467 59.9967 40.5 60C37.75 60 35.395 60.98 33.435 62.94C31.475 64.9 30.4967 67.2533 30.5 70C30.5 72.75 31.48 75.105 33.44 77.065C35.4 79.025 37.7533 80.0033 40.5 80ZM25.5 35H55.5V25C55.5 20.8333 54.0417 17.2917 51.125 14.375C48.2083 11.4583 44.6667 10 40.5 10C36.3333 10 32.7917 11.4583 29.875 14.375C26.9583 17.2917 25.5 20.8333 25.5 25V35Z" fill="white"/>
</svg>
