<svg width="40" height="40" viewBox="0 0 40 40" fill="none" xmlns="http://www.w3.org/2000/svg">
<path d="M33.4238 10.1248C33.3697 10.0398 33.308 9.97316 33.2272 9.91233C32.5863 9.43066 29.3347 7.12983 25.173 6.68316C25.1647 6.68233 25.133 6.68066 25.1255 6.68066C25.0438 6.68066 24.973 6.72816 24.9388 6.79733L24.7147 7.24566C24.7005 7.27316 24.6922 7.30483 24.6922 7.33816C24.6922 7.429 24.7505 7.5065 24.8322 7.53483C24.8372 7.5365 24.8722 7.544 24.8847 7.5465C28.4405 8.40316 30.6038 9.95483 32.5088 11.6673C29.1363 9.94566 25.8055 8.33316 20.0013 8.33316C14.1972 8.33316 10.8672 9.9465 7.49385 11.6673C9.39885 9.95483 11.5622 8.40316 15.118 7.5465C15.1305 7.54316 15.1655 7.5365 15.1705 7.53483C15.2522 7.5065 15.3105 7.429 15.3105 7.33816C15.3105 7.30483 15.303 7.27316 15.2888 7.24566L15.0638 6.79733C15.0297 6.72816 14.9597 6.68066 14.8772 6.68066C14.8697 6.68066 14.8372 6.68233 14.8297 6.68316C10.668 7.12983 7.41635 9.43066 6.77551 9.91233C6.69468 9.97316 6.63385 10.0398 6.57885 10.1248C5.98885 11.0473 2.37135 17.1148 1.66885 28.1515C1.66135 28.2698 1.70218 28.3923 1.78135 28.4807C5.60801 32.7673 11.0997 33.274 12.2713 33.3332C12.4105 33.3398 12.5438 33.279 12.6272 33.1673L13.6955 31.7432C13.7788 31.6315 13.7338 31.4748 13.603 31.4273C11.3488 30.6057 8.83885 29.1773 6.65968 26.6723C9.36051 28.714 13.4347 30.8332 20.0013 30.8332C26.568 30.8332 30.6422 28.714 33.3422 26.6723C31.1622 29.1773 28.653 30.6048 26.3988 31.4273C26.268 31.4748 26.223 31.6315 26.3063 31.7432L27.3747 33.1673C27.4588 33.279 27.5913 33.3407 27.7305 33.3332C28.903 33.2732 34.3938 32.7673 38.2205 28.4807C38.2997 28.3923 38.3405 28.2698 38.333 28.1515C37.6313 17.1148 34.0138 11.0473 33.4238 10.1248Z" fill="url(#paint0_radial_1083_514)"/>
<path opacity="0.05" d="M25.418 25.8333C27.489 25.8333 29.168 23.9679 29.168 21.6667C29.168 19.3655 27.489 17.5 25.418 17.5C23.3469 17.5 21.668 19.3655 21.668 21.6667C21.668 23.9679 23.3469 25.8333 25.418 25.8333Z" fill="black"/>
<path opacity="0.05" d="M25.4154 25.4165C27.2563 25.4165 28.7487 23.7376 28.7487 21.6665C28.7487 19.5954 27.2563 17.9165 25.4154 17.9165C23.5744 17.9165 22.082 19.5954 22.082 21.6665C22.082 23.7376 23.5744 25.4165 25.4154 25.4165Z" fill="black"/>
<path d="M25.4167 25.0002C27.0275 25.0002 28.3333 23.5078 28.3333 21.6668C28.3333 19.8259 27.0275 18.3335 25.4167 18.3335C23.8058 18.3335 22.5 19.8259 22.5 21.6668C22.5 23.5078 23.8058 25.0002 25.4167 25.0002Z" fill="white"/>
<path opacity="0.05" d="M14.582 25.8333C16.6531 25.8333 18.332 23.9679 18.332 21.6667C18.332 19.3655 16.6531 17.5 14.582 17.5C12.511 17.5 10.832 19.3655 10.832 21.6667C10.832 23.9679 12.511 25.8333 14.582 25.8333Z" fill="black"/>
<path opacity="0.05" d="M14.5833 25.4165C16.4243 25.4165 17.9167 23.7376 17.9167 21.6665C17.9167 19.5954 16.4243 17.9165 14.5833 17.9165C12.7424 17.9165 11.25 19.5954 11.25 21.6665C11.25 23.7376 12.7424 25.4165 14.5833 25.4165Z" fill="black"/>
<path d="M14.5846 25.0002C16.1955 25.0002 17.5013 23.5078 17.5013 21.6668C17.5013 19.8259 16.1955 18.3335 14.5846 18.3335C12.9738 18.3335 11.668 19.8259 11.668 21.6668C11.668 23.5078 12.9738 25.0002 14.5846 25.0002Z" fill="white"/>
<defs>
<radialGradient id="paint0_radial_1083_514" cx="0" cy="0" r="1" gradientUnits="userSpaceOnUse" gradientTransform="translate(20.0013 8.34066) scale(26.8767)">
<stop stop-color="#8C9EFF"/>
<stop offset="0.368" stop-color="#889AF8"/>
<stop offset="0.889" stop-color="#7E8FE6"/>
<stop offset="1" stop-color="#7B8CE1"/>
</radialGradient>
</defs>
</svg>
