<svg width="20" height="20" viewBox="0 0 20 20" fill="none" xmlns="http://www.w3.org/2000/svg">
<path d="M9.6 0.548004C4.2984 0.548004 0 4.8464 0 10.148C0 14.6464 3.0976 18.4104 7.2736 19.452C7.2288 19.3224 7.2 19.172 7.2 18.9856V17.3448C6.8104 17.3448 6.1576 17.3448 5.9936 17.3448C5.3368 17.3448 4.7528 17.0624 4.4696 16.5376C4.1552 15.9544 4.1008 15.0624 3.3216 14.5168C3.0904 14.3352 3.2664 14.128 3.5328 14.156C4.0248 14.2952 4.4328 14.6328 4.8168 15.1336C5.1992 15.6352 5.3792 15.7488 6.0936 15.7488C6.44 15.7488 6.9584 15.7288 7.4464 15.652C7.7088 14.9856 8.1624 14.372 8.7168 14.0824C5.52 13.7536 3.9944 12.1632 3.9944 10.004C3.9944 9.0744 4.3904 8.1752 5.0632 7.4176C4.8424 6.6656 4.5648 5.132 5.148 4.548C6.5864 4.548 7.456 5.4808 7.6648 5.7328C8.3816 5.4872 9.1688 5.348 9.996 5.348C10.8248 5.348 11.6152 5.4872 12.3336 5.7344C12.54 5.484 13.4104 4.548 14.852 4.548C15.4376 5.1328 15.1568 6.6728 14.9336 7.4232C15.6024 8.1792 15.996 9.076 15.996 10.004C15.996 12.1616 14.4728 13.7512 11.2808 14.0816C12.1592 14.54 12.8 15.828 12.8 16.7984V18.9856C12.8 19.0688 12.7816 19.1288 12.772 19.2C16.5128 17.8888 19.2 14.3368 19.2 10.148C19.2 4.8464 14.9016 0.548004 9.6 0.548004Z" fill="white"/>
</svg>
