<svg width="40" height="40" viewBox="0 0 40 40" fill="none" xmlns="http://www.w3.org/2000/svg">
<path d="M27.4987 6.66659C27.4987 4.82575 26.0062 3.33325 24.1654 3.33325C22.3245 3.33325 20.832 4.82575 20.832 6.66659C20.832 7.71159 20.832 14.7841 20.832 15.8333C20.832 17.6741 22.3245 19.1666 24.1654 19.1666C26.0062 19.1666 27.4987 17.6741 27.4987 15.8333C27.4987 14.7841 27.4987 7.71159 27.4987 6.66659Z" fill="#33D375"/>
<path d="M35.8346 15.8333C35.8346 17.6742 34.3421 19.1667 32.5013 19.1667C31.5055 19.1667 29.168 19.1667 29.168 19.1667C29.168 19.1667 29.168 16.6783 29.168 15.8333C29.168 13.9925 30.6605 12.5 32.5013 12.5C34.3421 12.5 35.8346 13.9925 35.8346 15.8333Z" fill="#33D375"/>
<path d="M6.66536 11.6667C4.82453 11.6667 3.33203 13.1592 3.33203 15.0001C3.33203 16.8409 4.82453 18.3334 6.66536 18.3334C7.71036 18.3334 14.7829 18.3334 15.832 18.3334C17.6729 18.3334 19.1654 16.8409 19.1654 15.0001C19.1654 13.1592 17.6729 11.6667 15.832 11.6667C14.7829 11.6667 7.71036 11.6667 6.66536 11.6667Z" fill="#40C4FF"/>
<path d="M15.8333 3.33325C17.6742 3.33325 19.1667 4.82575 19.1667 6.66659C19.1667 7.66242 19.1667 9.99992 19.1667 9.99992C19.1667 9.99992 16.6783 9.99992 15.8333 9.99992C13.9925 9.99992 12.5 8.50742 12.5 6.66659C12.5 4.82575 13.9925 3.33325 15.8333 3.33325Z" fill="#40C4FF"/>
<path d="M11.668 32.5051C11.668 34.3434 13.1605 35.8334 15.0013 35.8334C16.8421 35.8334 18.3346 34.3434 18.3346 32.5051C18.3346 31.4618 18.3346 24.3993 18.3346 23.3518C18.3346 21.5134 16.8421 20.0234 15.0013 20.0234C13.1605 20.0234 11.668 21.5134 11.668 23.3518C11.668 24.3993 11.668 31.4618 11.668 32.5051Z" fill="#E91E63"/>
<path d="M3.33203 23.3518C3.33203 21.5134 4.82453 20.0234 6.66536 20.0234C7.6612 20.0234 9.9987 20.0234 9.9987 20.0234C9.9987 20.0234 9.9987 22.5076 9.9987 23.3518C9.9987 25.1901 8.5062 26.6801 6.66536 26.6801C4.82453 26.6801 3.33203 25.1901 3.33203 23.3518Z" fill="#E91E63"/>
<path d="M32.5 27.4999C34.3408 27.4999 35.8333 26.0074 35.8333 24.1666C35.8333 22.3258 34.3408 20.8333 32.5 20.8333C31.455 20.8333 24.3825 20.8333 23.3333 20.8333C21.4925 20.8333 20 22.3258 20 24.1666C20 26.0074 21.4925 27.4999 23.3333 27.4999C24.3817 27.4999 31.455 27.4999 32.5 27.4999Z" fill="#FFC107"/>
<path d="M23.3333 35.8334C21.4925 35.8334 20 34.3409 20 32.5001C20 31.5042 20 29.1667 20 29.1667C20 29.1667 22.4883 29.1667 23.3333 29.1667C25.1742 29.1667 26.6667 30.6592 26.6667 32.5001C26.6667 34.3409 25.1742 35.8334 23.3333 35.8334Z" fill="#FFC107"/>
</svg>
